<svg width="778" height="878" viewBox="0 0 778 878" fill="none" xmlns="http://www.w3.org/2000/svg">
    <path fill-rule="evenodd" clip-rule="evenodd" d="M427.255 1.1609C526.51 5.87687 630.917 42.7627 691.519 119.558C747.553 190.564 709.903 291.388 725.909 379.614C738.777 450.544 786.802 513.461 775.905 584.704C763.832 663.632 725.343 738.952 663.032 790.686C597.772 844.868 511.336 890.395 427.255 874.171C345.762 858.447 320.376 755.323 250.75 711.135C174.569 662.787 41.7534 689.285 6.93153 607.413C-27.181 527.21 84.4574 456.757 106.809 372.709C131.568 279.608 80.1091 167.133 143.594 93.5241C209.366 17.2636 325.19 -3.6886 427.255 1.1609Z" fill="black" stroke="black"/>
</svg>